<svg xmlns="http://www.w3.org/2000/svg" xmlns:xlink="http://www.w3.org/1999/xlink" xmlns:xodm="http://www.corel.com/coreldraw/odm/2003" xml:space="preserve" version="1.1" style="shape-rendering:geometricPrecision;text-rendering:geometricPrecision;image-rendering:optimizeQuality;" viewBox="0 0 8.4666 10.58325" x="0px" y="0px" fill-rule="evenodd" clip-rule="evenodd"><defs><style type="text/css">
   
    .fil0 {fill:black;fill-rule:nonzero}
   
  </style></defs><g><path class="fil0" d="M6.7856 4.9002l-1.0609 1.0611 0.0241 0.2885 0.3242 0.0518 1.0527 -1.053 -0.0516 -0.3242 -0.2885 -0.0242zm0.8975 1.6865l-0.2721 0.272 0.0862 0.0862c0.0816,0.0816 0.1446,0.1354 0.1939,0.1455 0.0356,0.0073 0.08,-0.0156 0.1438,-0.0794 0.0644,-0.0643 0.0874,-0.1086 0.0802,-0.144 -0.01,-0.0492 -0.0639,-0.1122 -0.1458,-0.1941l-0.0862 -0.0862zm-0.4512 0.0929l0.2721 -0.272 -0.5895 -0.5895 -0.272 0.2721 0.5894 0.5894zm-1.2462 -1.3385l-1.1748 -1.1747 -0.3799 0.3158 1.3179 1.0957 0.2368 -0.2368zm-0.9787 -1.3378l1.1582 1.1581 0.2369 -0.2369 -1.0231 -1.2305 -0.372 0.3093zm-1.5308 -1.1725l-0.6111 -0.6109c-0.0495,-0.0493 -0.0498,-0.1296 -0.0005,-0.1791 0.0493,-0.0495 0.1296,-0.0498 0.1791,-0.0005l0.5951 0.5949 0.43 -0.5171 -0.6184 -0.7437 -1.2811 0.0087 0.0278 1.2415 0.8576 0.7131 0.4215 -0.5069zm3.6179 2.8077l0.8548 0.8548c0.1144,0.1144 0.1916,0.2122 0.2142,0.3231 0.0255,0.1246 -0.0168,0.2412 -0.1484,0.373 -0.1328,0.1327 -0.2497,0.1746 -0.3742,0.149 -0.1112,-0.0228 -0.209,-0.1 -0.3229,-0.2139l-0.8547 -0.8547 -0.2562 0.2563c-0.0278,0.0277 -0.0679,0.0423 -0.1096,0.0357l-0.4771 -0.0762c-0.0607,-0.005 -0.1109,-0.0534 -0.116,-0.1161l-0.0372 -0.446c-0.0029,-0.0359 0.0093,-0.0728 0.0367,-0.1002l0.0658 -0.0658 -1.3361 -1.1109 -1.336 1.1108 0.0659 0.0659c0.0274,0.0274 0.0396,0.0643 0.0367,0.1002l-0.0374 0.446c-0.0051,0.0627 -0.0552,0.1111 -0.116,0.1161l-0.477 0.0762c-0.0415,0.0066 -0.0816,-0.0079 -0.1093,-0.0355l-0.2566 -0.2565 -0.8619 0.8613c-0.1111,0.1104 -0.2072,0.1851 -0.3156,0.2073 -0.1245,0.0256 -0.2414,-0.0163 -0.3735,-0.1483 -0.1323,-0.1325 -0.1746,-0.2491 -0.1491,-0.3737 0.0226,-0.1109 0.0998,-0.2087 0.2142,-0.3231l0.8545 -0.8546 -0.2564 -0.2564c-0.0324,-0.0324 -0.0436,-0.078 -0.0336,-0.1196l0.0759 -0.4763c0.0093,-0.0588 0.0578,-0.1017 0.1146,-0.1063l0.446 -0.0378c0.0386,-0.0032 0.0747,0.0114 0.1002,0.0367l0.0659 0.0659 1.0083 -1.2127 -0.9004 -0.7487c-0.0282,-0.0227 -0.0465,-0.0571 -0.0472,-0.096l-0.032 -1.4295c-0.0002,-0.0698 0.0562,-0.1268 0.126,-0.127l1.4695 -0.01c0.0364,0 0.0726,0.0155 0.0977,0.0456l0.6267 0.7537 0.6266 -0.7536c0.0251,-0.0301 0.0613,-0.0456 0.0977,-0.0455l1.4694 0.0098c0.0698,0.0002 0.1262,0.0572 0.126,0.127l-0.0319 1.4296c-0.0007,0.0389 -0.019,0.0733 -0.0472,0.096l-0.9005 0.7487 1.0083 1.2126 0.0659 -0.0659c0.0255,-0.0253 0.0616,-0.0399 0.1002,-0.0367l0.446 0.0374c0.0568,0.005 0.1053,0.0479 0.1146,0.1067l0.077 0.4831c0.0072,0.0395 -0.0043,0.0818 -0.0347,0.1123l-0.2566 0.2567zm-6.1314 0.7688l0.2722 0.2722 0.589 -0.5892 -0.2721 -0.2721 -0.5891 0.5891zm0.0926 0.4518l-0.2722 -0.2722 -0.0859 0.086c-0.0819,0.0819 -0.1358,0.1449 -0.1458,0.1941 -0.0072,0.0354 0.0158,0.0797 0.0797,0.1435 0.0643,0.0643 0.1087,0.0872 0.1443,0.0799 0.0485,-0.0099 0.1094,-0.061 0.1874,-0.1387l0.0925 -0.0926zm1.2458 -1.6978l3.1209 -3.1211c0.0495,-0.0495 0.1301,-0.0495 0.1796,0 0.0495,0.0495 0.0495,0.1301 0,0.1796l-3.1209 3.1211 0.2369 0.2369 3.5518 -2.9531 0.0277 -1.2416 -1.281 -0.0086 -2.9518 3.55 0.2368 0.2368zm0.4408 0.8l-1.0611 -1.0611 -0.2885 0.0242 -0.0516 0.3237 1.0533 1.0534 0.3237 -0.0517 0.0242 -0.2885z"/></g><text x="0" y="23.4666" fill="#000000" font-size="5px" font-weight="bold" font-family="'Helvetica Neue', Helvetica, Arial-Unicode, Arial, Sans-serif">Created by Imron Sadewo</text><text x="0" y="28.4666" fill="#000000" font-size="5px" font-weight="bold" font-family="'Helvetica Neue', Helvetica, Arial-Unicode, Arial, Sans-serif">from the Noun Project</text></svg>