<svg data-v-423bf9ae="" xmlns="http://www.w3.org/2000/svg" viewBox="0 0 217.65860850271258 60" class="font"><!----><!----><defs data-v-423bf9ae=""><linearGradient data-v-423bf9ae="" gradientTransform="rotate(25)" id="14b9d722-2ade-457f-bc31-27ee6cf615bd" x1="0%" y1="0%" x2="100%" y2="0%"><stop data-v-423bf9ae="" offset="0%" style="stop-color: rgb(0, 118, 221); stop-opacity: 1;"></stop><stop data-v-423bf9ae="" offset="100%" style="stop-color: rgb(230, 0, 233); stop-opacity: 1;"></stop></linearGradient></defs><g data-v-423bf9ae="" id="c026f2e8-1362-4731-baf0-33c627e74ff3" fill="url(#14b9d722-2ade-457f-bc31-27ee6cf615bd)" transform="matrix(4.531722132721215,0,0,4.531722132721215,-5.211478589509426,-17.71903464315652)"><path d="M3.00 10.58L4.75 10.58L6.57 14.35L8.62 14.35L6.62 10.37C7.83 9.97 8.44 8.95 8.44 7.60C8.44 5.75 7.34 4.58 5.56 4.58L1.15 4.58L1.15 14.35L3.00 14.35ZM3.00 9.03L3.00 6.19L5.38 6.19C6.09 6.19 6.52 6.57 6.52 7.28L6.52 7.92C6.52 8.64 6.09 9.03 5.38 9.03ZM12.00 14.52C13.09 14.52 13.89 14.03 14.13 13.09L14.21 13.09C14.32 13.85 14.80 14.35 15.57 14.35L16.56 14.35L16.56 12.92L15.83 12.92L15.83 9.48C15.83 7.81 14.78 6.87 12.81 6.87C11.34 6.87 10.49 7.43 9.95 8.27L11.02 9.23C11.37 8.72 11.84 8.30 12.68 8.30C13.64 8.30 14.04 8.78 14.04 9.59L14.04 10.12L12.80 10.12C10.81 10.12 9.67 10.86 9.67 12.36C9.67 13.66 10.51 14.52 12.00 14.52ZM12.60 13.22C11.90 13.22 11.49 12.92 11.49 12.33L11.49 12.10C11.49 11.52 11.96 11.20 12.89 11.20L14.04 11.20L14.04 12.17C14.04 12.85 13.40 13.22 12.60 13.22ZM19.81 14.35L19.81 9.52C19.81 8.74 20.52 8.34 21.27 8.34C22.12 8.34 22.47 8.88 22.47 9.91L22.47 14.35L24.26 14.35L24.26 9.73C24.26 7.91 23.42 6.87 21.92 6.87C20.79 6.87 20.17 7.48 19.88 8.26L19.81 8.26L19.81 7.04L18.02 7.04L18.02 14.35ZM26.25 14.35L28.04 14.35L28.04 12.12L29.01 11.07L30.88 14.35L33.01 14.35L30.23 9.87L32.75 7.04L30.72 7.04L29.08 8.92L28.11 10.23L28.04 10.23L28.04 3.99L26.25 3.99ZM35.01 5.98C35.74 5.98 36.06 5.60 36.06 5.08L36.06 4.80C36.06 4.28 35.74 3.91 35.01 3.91C34.27 3.91 33.96 4.28 33.96 4.80L33.96 5.08C33.96 5.60 34.27 5.98 35.01 5.98ZM34.12 14.35L35.91 14.35L35.91 7.04L34.12 7.04ZM38.35 14.35L40.14 14.35L40.14 8.46L41.64 8.46L41.64 7.04L40.14 7.04L40.14 5.42L41.64 5.42L41.64 3.99L40.36 3.99C39.05 3.99 38.35 4.70 38.35 5.99L38.35 7.04L37.27 7.04L37.27 8.46L38.35 8.46ZM46.23 10.91L45.72 12.75L45.64 12.75L45.16 10.91L43.89 7.04L42.11 7.04L44.73 14.70L44.39 15.72L43.08 15.72L43.08 17.15L44.16 17.15C45.36 17.15 45.88 16.70 46.24 15.65L49.18 7.04L47.50 7.04Z"></path></g><!----><!----></svg>